<svg width="21.500000" height="21.500000" viewBox="0 0 21.5 21.5" fill="none" xmlns="http://www.w3.org/2000/svg" xmlns:xlink="http://www.w3.org/1999/xlink">

	<defs/>
	<path id="Vector" d="M13.75 21.5L7.75 21.5C2.32 21.5 0 19.18 0 13.75L0 7.75C0 2.32 2.32 0 7.75 0L13.75 0C19.18 0 21.5 2.32 21.5 7.75L21.5 13.75C21.5 19.18 19.18 21.5 13.75 21.5ZM7.75 1.5C3.14 1.5 1.5 3.14 1.5 7.75L1.5 13.75C1.5 18.36 3.14 20 7.75 20L13.75 20C18.36 20 20 18.36 20 13.75L20 7.75C20 3.14 18.36 1.5 13.75 1.5L7.75 1.5Z" fill="#9197B3" fill-opacity="1.000000" fill-rule="nonzero"/>
	<path id="Vector" d="M10.75 11.82C10.62 11.82 10.49 11.79 10.37 11.72L5.07 8.66C4.71 8.45 4.59 7.99 4.8 7.64C5.01 7.28 5.47 7.16 5.82 7.37L10.74 10.22L15.63 7.39C15.99 7.18 16.45 7.31 16.65 7.66C16.85 8.01 16.73 8.48 16.38 8.68L11.12 11.72C11.01 11.78 10.88 11.82 10.75 11.82Z" fill="#9197B3" fill-opacity="1.000000" fill-rule="nonzero"/>
	<path id="Vector" d="M10.75 17.27C10.34 17.27 10 16.93 10 16.52L10 11.08C10 10.67 10.34 10.33 10.75 10.33C11.16 10.33 11.5 10.67 11.5 11.08L11.5 16.52C11.5 16.93 11.16 17.27 10.75 17.27Z" fill="#9197B3" fill-opacity="1.000000" fill-rule="nonzero"/>
	<path id="Vector" d="M10.75 17.49C10.17 17.49 9.6 17.36 9.14 17.11L5.94 15.33C4.98 14.8 4.24 13.53 4.24 12.43L4.24 9.04C4.24 7.95 4.99 6.68 5.94 6.14L9.14 4.36C10.06 3.85 11.44 3.85 12.36 4.36L15.56 6.14C16.52 6.67 17.26 7.94 17.26 9.04L17.26 12.43C17.26 13.52 16.51 14.79 15.56 15.33L12.36 17.11C11.9 17.37 11.33 17.49 10.75 17.49ZM10.75 5.49C10.42 5.49 10.1 5.55 9.87 5.68L6.67 7.46C6.18 7.73 5.74 8.49 5.74 9.04L5.74 12.43C5.74 12.99 6.18 13.74 6.67 14.01L9.87 15.79C10.33 16.05 11.17 16.05 11.63 15.79L14.83 14.01C15.32 13.74 15.76 12.98 15.76 12.43L15.76 9.04C15.76 8.48 15.32 7.73 14.83 7.46L11.63 5.68C11.4 5.55 11.08 5.49 10.75 5.49Z" fill="#9197B3" fill-opacity="1.000000" fill-rule="nonzero"/>
</svg>
