<svg width="21.500000" height="21.500000" viewBox="0 0 21.5 21.5" fill="none" xmlns="http://www.w3.org/2000/svg" xmlns:xlink="http://www.w3.org/1999/xlink">

	<defs/>
	<path id="Vector" d="M13.75 20.75C18.75 20.75 20.75 18.75 20.75 13.75L20.75 7.75C20.75 2.75 18.75 0.75 13.75 0.75L7.75 0.75C2.75 0.75 0.75 2.75 0.75 7.75L0.75 13.75C0.75 18.75 2.75 20.75 7.75 20.75L13.75 20.75Z" stroke="#9197B3" stroke-opacity="1.000000" stroke-width="1.500000" stroke-linejoin="round"/>
	<path id="Vector" d="M10.85 13.39L8.26 15.97C8.08 16.16 7.71 16.28 7.44 16.24L6.23 16.08C5.84 16.03 5.48 15.65 5.42 15.26L5.26 14.06C5.22 13.8 5.35 13.43 5.53 13.24L8.1 10.66C7.67 9.23 8.01 7.61 9.14 6.48C10.76 4.86 13.4 4.86 15.03 6.48C16.65 8.09 16.65 10.73 15.03 12.36C13.9 13.49 12.28 13.84 10.85 13.39Z" stroke="#9197B3" stroke-opacity="1.000000" stroke-width="1.500000" stroke-linejoin="round"/>
	<path id="Vector" d="M12.14 9.45L12.15 9.45" stroke="#9197B3" stroke-opacity="1.000000" stroke-width="2.000000" stroke-linejoin="round" stroke-linecap="round"/>
</svg>
