<svg width="20.500000" height="20.000412" viewBox="0 0 20.5 20.0004" fill="none" xmlns="http://www.w3.org/2000/svg" xmlns:xlink="http://www.w3.org/1999/xlink">

	<defs/>
	<path id="Vector" d="M9.5 16.14C9.5 17.86 7.9 19.25 5.93 19.25C3.96 19.25 2.35 17.86 2.35 16.14L2.35 14.11C2.35 15.83 3.95 17.05 5.93 17.05C7.9 17.05 9.5 15.82 9.5 14.11L9.5 16.14Z" stroke="#9197B3" stroke-opacity="1.000000" stroke-width="1.500000" stroke-linejoin="round"/>
	<path id="Vector" d="M9.12 12.72C8.53 13.69 7.32 14.3 5.92 14.3C4.52 14.3 3.31 13.68 2.72 12.72C2.48 12.32 2.34 11.86 2.34 11.36C2.34 10.5 2.74 9.73 3.38 9.17C4.03 8.6 4.92 8.26 5.91 8.26C6.9 8.26 7.79 8.61 8.44 9.17C9.1 9.72 9.5 10.5 9.5 11.36C9.5 11.86 9.36 12.32 9.12 12.72Z" stroke="#9197B3" stroke-opacity="1.000000" stroke-width="1.500000" stroke-linejoin="round"/>
	<path id="Vector" d="M9.5 14.11C9.5 15.83 7.9 17.04 5.93 17.04C3.96 17.04 2.35 15.82 2.35 14.11L2.35 11.36C2.35 9.64 3.95 8.25 5.93 8.25C6.92 8.25 7.81 8.6 8.46 9.16C9.1 9.72 9.5 10.5 9.5 11.36L9.5 14.11Z" stroke="#9197B3" stroke-opacity="1.000000" stroke-width="1.500000" stroke-linejoin="round"/>
	<path id="Vector" d="M0.75 7.75L0.75 5.75C0.75 3.03 2.39 1.13 4.94 0.8C5.2 0.76 5.46 0.75 5.75 0.75L14.75 0.75C15.01 0.75 15.26 0.75 15.5 0.79C18.08 1.09 19.75 3.01 19.75 5.75L19.75 7.2L17.67 7.2C17.11 7.2 16.6 7.42 16.23 7.79C15.81 8.2 15.57 8.79 15.63 9.42C15.72 10.51 16.7 11.3 17.79 11.3L19.75 11.3L19.75 12.75C19.75 15.75 17.75 17.75 14.75 17.75L12.25 17.75" stroke="#9197B3" stroke-opacity="1.000000" stroke-width="1.500000" stroke-linejoin="round" stroke-linecap="round"/>
</svg>
