<svg width="21.500000" height="21.499786" viewBox="0 0 21.5 21.4998" fill="none" xmlns="http://www.w3.org/2000/svg" xmlns:xlink="http://www.w3.org/1999/xlink">

	<defs/>
	<path id="Vector" d="M13.75 21.49L7.75 21.49C6.43 21.49 5.33 21.36 4.4 21.08C4.06 20.98 3.84 20.65 3.86 20.3C4.11 17.31 7.14 14.96 10.75 14.96C14.36 14.96 17.38 17.3 17.64 20.3C17.67 20.66 17.45 20.98 17.1 21.08C16.17 21.36 15.07 21.49 13.75 21.49ZM5.47 19.8C6.13 19.93 6.88 19.99 7.75 19.99L13.75 19.99C14.62 19.99 15.37 19.93 16.03 19.8C15.5 17.88 13.31 16.46 10.75 16.46C8.19 16.46 6 17.88 5.47 19.8Z" fill="#FFFFFF" fill-opacity="1.000000" fill-rule="nonzero"/>
	<path id="Vector" d="M7.75 0.75C2.75 0.75 0.75 2.75 0.75 7.75L0.75 13.75C0.75 17.53 1.89 19.6 4.6 20.37C4.83 17.77 7.5 15.72 10.75 15.72C14 15.72 16.67 17.77 16.89 20.37C19.61 19.6 20.75 17.53 20.75 13.75L20.75 7.75C20.75 2.75 18.75 0.75 13.75 0.75L7.75 0.75ZM7.16 9.32C7.16 7.35 8.77 5.75 10.75 5.75C12.73 5.75 14.33 7.35 14.33 9.32C14.33 11.31 12.73 12.92 10.75 12.92C8.77 12.92 7.16 11.31 7.16 9.32Z" stroke="#FFFFFF" stroke-opacity="1.000000" stroke-width="1.500000" stroke-linejoin="round"/>
	<path id="Vector" d="M10.74 13.67C8.35 13.67 6.41 11.72 6.41 9.32C6.41 6.94 8.35 5 10.74 5C13.13 5 15.07 6.94 15.07 9.32C15.07 11.72 13.13 13.67 10.74 13.67ZM10.74 6.5C9.18 6.5 7.91 7.77 7.91 9.32C7.91 10.9 9.18 12.17 10.74 12.17C12.3 12.17 13.57 10.9 13.57 9.32C13.57 7.77 12.3 6.5 10.74 6.5Z" fill="#FFFFFF" fill-opacity="1.000000" fill-rule="nonzero"/>
</svg>
