<svg width="21.500000" height="20.629959" viewBox="0 0 21.5 20.63" fill="none" xmlns="http://www.w3.org/2000/svg" xmlns:xlink="http://www.w3.org/1999/xlink">

	<defs/>
	<path id="Vector" d="M6.75 20.63C6.46 20.63 6.17 20.56 5.91 20.42C5.34 20.12 5 19.52 5 18.87L5 17.46C1.97 17.15 0 14.93 0 11.75L0 5.75C0 2.31 2.31 0 5.75 0L15.75 0C19.19 0 21.5 2.31 21.5 5.75L21.5 11.75C21.5 15.19 19.19 17.5 15.75 17.5L11.98 17.5L7.71 20.34C7.42 20.53 7.09 20.63 6.75 20.63ZM5.75 1.48C3.16 1.48 1.5 3.15 1.5 5.73L1.5 11.74C1.5 14.32 3.16 15.99 5.75 15.99C6.15 15.99 6.5 16.33 6.5 16.74L6.5 18.87C6.5 19 6.58 19.06 6.63 19.09C6.67 19.12 6.78 19.15 6.89 19.08L11.34 16.12C11.46 16.04 11.61 15.99 11.76 15.99L15.76 15.99C18.34 15.99 20.01 14.32 20.01 11.74L20.01 5.73C20.01 3.15 18.34 1.48 15.76 1.48L5.75 1.48Z" fill="#9197B3" fill-opacity="1.000000" fill-rule="nonzero"/>
	<path id="Vector" d="M10.74 10.42C10.33 10.42 9.99 10.08 9.99 9.66L9.99 9.45C9.99 8.29 10.84 7.72 11.16 7.5C11.53 7.25 11.65 7.08 11.65 6.82C11.65 6.32 11.24 5.91 10.74 5.91C10.24 5.91 9.83 6.32 9.83 6.82C9.83 7.23 9.49 7.57 9.08 7.57C8.67 7.57 8.33 7.23 8.33 6.82C8.33 5.49 9.41 4.41 10.74 4.41C12.07 4.41 13.15 5.49 13.15 6.82C13.15 7.96 12.31 8.53 12 8.74C11.61 9 11.49 9.17 11.49 9.45L11.49 9.66C11.49 10.09 11.15 10.42 10.74 10.42Z" fill="#9197B3" fill-opacity="1.000000" fill-rule="nonzero"/>
	<path id="Vector" d="M10.75 12.91C10.33 12.91 10 12.57 10 12.16C10 11.75 10.34 11.41 10.75 11.41C11.16 11.41 11.5 11.75 11.5 12.16C11.5 12.57 11.17 12.91 10.75 12.91Z" fill="#9197B3" fill-opacity="1.000000" fill-rule="nonzero"/>
</svg>
