<svg width="21.500000" height="21.470032" viewBox="0 0 21.5 21.47" fill="none" xmlns="http://www.w3.org/2000/svg" xmlns:xlink="http://www.w3.org/1999/xlink">

	<defs/>
	<path id="Vector" d="M10.75 21.47C10.12 21.47 9.53 21.23 9.09 20.78L7.57 19.26C7.45 19.14 7.13 19.01 6.96 19.01L4.81 19.01C3.51 19.01 2.45 17.95 2.45 16.66L2.45 14.5C2.45 14.34 2.33 14.02 2.2 13.9L0.69 12.38C0.25 11.94 0 11.35 0 10.72C0 10.09 0.23 9.5 0.69 9.06L2.2 7.54C2.33 7.42 2.45 7.1 2.45 6.94L2.45 4.78C2.45 3.48 3.51 2.43 4.81 2.43L6.96 2.43C7.13 2.43 7.45 2.3 7.57 2.18L9.09 0.66C9.96 -0.23 11.53 -0.23 12.41 0.66L13.93 2.18C14.05 2.3 14.37 2.43 14.53 2.43L16.69 2.43C17.99 2.43 19.04 3.48 19.04 4.78L19.04 6.94C19.04 7.1 19.17 7.42 19.29 7.54L20.81 9.06C21.25 9.5 21.5 10.09 21.5 10.72C21.5 11.35 21.26 11.94 20.81 12.38L19.29 13.9C19.17 14.02 19.04 14.34 19.04 14.5L19.04 16.66C19.04 17.95 17.99 19.01 16.69 19.01L14.53 19.01C14.37 19.01 14.05 19.14 13.93 19.26L12.41 20.78C11.97 21.23 11.38 21.47 10.75 21.47ZM3.27 12.84C3.66 13.24 3.95 13.94 3.95 14.5L3.95 16.66C3.95 17.12 4.34 17.51 4.81 17.51L6.96 17.51C7.53 17.51 8.22 17.79 8.63 18.2L10.14 19.71C10.47 20.04 11.03 20.04 11.35 19.71L12.87 18.2C13.27 17.79 13.97 17.51 14.53 17.51L16.69 17.51C17.16 17.51 17.54 17.12 17.54 16.66L17.54 14.5C17.54 13.94 17.83 13.24 18.23 12.84L19.75 11.32C19.91 11.16 20 10.95 20 10.72C20 10.49 19.91 10.28 19.75 10.12L18.23 8.6C17.83 8.2 17.54 7.5 17.54 6.94L17.54 4.78C17.54 4.31 17.16 3.93 16.69 3.93L14.53 3.93C13.97 3.93 13.27 3.64 12.87 3.24L11.35 1.72C11.03 1.4 10.47 1.4 10.14 1.72L8.63 3.24C8.22 3.64 7.53 3.93 6.96 3.93L4.81 3.93C4.34 3.93 3.95 4.31 3.95 4.78L3.95 6.94C3.95 7.5 3.66 8.2 3.27 8.6L1.75 10.12C1.59 10.28 1.5 10.49 1.5 10.72C1.5 10.95 1.59 11.16 1.75 11.32L3.27 12.84Z" fill="#9197B3" fill-opacity="1.000000" fill-rule="nonzero"/>
	<path id="Vector" d="M13.75 14.71C13.19 14.71 12.74 14.26 12.74 13.71C12.74 13.16 13.19 12.71 13.74 12.71C14.29 12.71 14.74 13.16 14.74 13.71C14.74 14.26 14.3 14.71 13.75 14.71Z" fill="#9197B3" fill-opacity="1.000000" fill-rule="nonzero"/>
	<path id="Vector" d="M7.76 8.71C7.2 8.71 6.75 8.26 6.75 7.71C6.75 7.16 7.2 6.71 7.75 6.71C8.29 6.71 8.75 7.16 8.75 7.71C8.75 8.26 8.31 8.71 7.76 8.71Z" fill="#9197B3" fill-opacity="1.000000" fill-rule="nonzero"/>
	<path id="Vector" d="M7.74 14.46C7.55 14.46 7.36 14.39 7.21 14.24C6.92 13.95 6.92 13.47 7.21 13.18L13.21 7.18C13.5 6.89 13.98 6.89 14.27 7.18C14.56 7.47 14.56 7.95 14.27 8.24L8.27 14.24C8.12 14.39 7.93 14.46 7.74 14.46Z" fill="#9197B3" fill-opacity="1.000000" fill-rule="nonzero"/>
</svg>
